/* XPM */
static char *_fe9c8c1fb584f2ba58e9579ad894b65MXOa1aiHTrzGI4g7[] = {
/* columns rows colors chars-per-pixel */
"32 32 41 1 ",
"  c None",
". c #222034",
"X c #45283C",
"o c #663931",
"O c #8F563B",
"+ c #DF7126",
"@ c #D9A066",
"# c #EEC39A",
"$ c #FBF236",
"% c #99E550",
"& c #6ABE30",
"* c #37946E",
"= c #4B692F",
"- c #524B24",
"; c #323C39",
": c #3F3F74",
"> c #306082",
", c #5B6EE1",
"< c #639BFF",
"1 c #5FCDE4",
"2 c #CBDBFC",
"3 c white",
"4 c #9BADB7",
"5 c #847E87",
"6 c #696A6A",
"7 c #595652",
"8 c #76428A",
"9 c #AC3232",
"0 c #D95763",
"q c #D77BBA",
"w c #8F974A",
"e c #8A6F30",
"r c #E8E1E1",
"t c #DFDCDC",
"y c gray95",
"u c #CFF6F1",
"i c #E8F6F4",
"p c #D6F6F1",
"a c #E5FAF7",
"s c #4C4A4A",
"d c #605E5E",
/* pixels */
"ssssssdsssssssssdsssdsssssdsdsss",
"ssssssssssssssssssssssssssssssss",
"sdsdsssssssssdsdsssssdsdsssssdss",
"ssssssssssssssssssssssssssssssss",
"ssdsssssdsdsssssssssssssssdsdsss",
"ssssssssssssssssssssssssssssssss",
"sssssssssssssssssssssssdsdssssss",
"ssssssssssssssssssssssssssssssss",
"dsdsssssssssdsssdsssssssssssssss",
"ssssssssssssssssssssssssssssssss",
"sssssssssssssdsdsssssssdsssdssss",
"ssssssssssssssssssssssssssssssss",
"ssdsdsssssdsdsssssssdsdsssssssss",
"ssssssssssssssssssssssssssssssss",
"sdsdssssssssssssssssssssssssssss",
"ssssssssssssssssssssssssssssssss",
"ssssdsssssssssssdsdsssdsssdsdsds",
"ssssssssssssssssssssssssssssssss",
"sssssssssssssssssdsssssssssdsdss",
"ssssssssssssssssssssssssssssssss",
"ssssssdsdsssssssssssssssssdsssds",
"ssssssssssssssssssssssssssssssss",
"sssssssssssssssssssdsdssssssssss",
"ssssssssssssssssssssssssssssssss",
"ssssssssssdsssssssssssssdsssssss",
"ssssssssssssssssssssssssssssssss",
"sssssssssssssssdsssssssdsssdsssd",
"ssssssssssssssssssssssssssssssss",
"dsssdsssdsssssssdsdsssssssssssds",
"ssssssssssssssssssssssssssssssss",
"sdsssdsssssssssdsssssssdsssdssss",
"ssssssssssssssssssssssssssssssss"
};
